<?xml version="1.0" encoding="utf-8"?>
<!-- Generator: Adobe Illustrator 22.1.0, SVG Export Plug-In . SVG Version: 6.00 Build 0)  -->
<svg version="1.1" id="Layer_1" xmlns="http://www.w3.org/2000/svg" xmlns:xlink="http://www.w3.org/1999/xlink" x="0px" y="0px"
	 viewBox="0 0 2000 400" style="enable-background:new 0 0 2000 400;" xml:space="preserve">
<metadata><?xpacket begin="﻿" id="W5M0MpCehiHzreSzNTczkc9d"?>
<x:xmpmeta xmlns:x="adobe:ns:meta/" x:xmptk="Adobe XMP Core 5.6-c143 79.161356, 2017/09/07-01:11:22        ">
   <rdf:RDF xmlns:rdf="http://www.w3.org/1999/02/22-rdf-syntax-ns#">
      <rdf:Description rdf:about=""/>
   </rdf:RDF>
</x:xmpmeta>
                                                                                                    
                                                                                                    
                                                                                                    
                                                                                                    
                                                                                                    
                                                                                                    
                                                                                                    
                                                                                                    
                                                                                                    
                                                                                                    
                                                                                                    
                                                                                                    
                                                                                                    
                                                                                                    
                                                                                                    
                                                                                                    
                                                                                                    
                                                                                                    
                                                                                                    
                                                                                                    
                           
<?xpacket end="w"?></metadata>
<style type="text/css">
	.st0{fill:#404041;}
	.st1{fill:#ED3725;}
</style>
<g>
	<path class="st0" d="M950.3814087,191.9445343c-7.3444824,3.8316193-15.0163574,6.6011658-22.9979248,8.3002625
		c-7.9815063,1.698822-16.1223145,2.5572815-24.4135132,2.5572815c-8.8486938,0-16.989502-1.3893585-24.4312744-4.1499939
		c-7.4507446-2.7698059-13.8925781-6.7340088-19.3167725-11.8928833c-5.4331055-5.167511-9.6628418-11.4146423-12.697998-18.7592316
		c-3.0262451-7.3443146-4.5481567-15.5381775-4.5481567-24.5904999c0-9.0434113,1.5219116-17.2372742,4.5481567-24.5815811
		c3.0351562-7.3445892,7.2648926-13.6006317,12.697998-18.7594986c5.4241943-5.1585999,11.8660278-9.1228104,19.3167725-11.901535
		c7.4417725-2.7606277,15.5825806-4.1410828,24.4312744-4.1410828c9.0344849,0,17.3699951,1.0882721,24.9799194,3.2650757
		c7.6098633,2.1857147,14.2905884,5.9376678,20.0333862,11.2555847l-17.5557861,19.1575394
		c-3.4067993-3.5129623-7.2382812-6.1674728-11.4944458-7.9816055c-4.2651367-1.8049622-9.5831909-2.7166214-15.9630737-2.7166214
		c-5.3269653,0-10.140686,0.9116592-14.4500122,2.7166214c-4.3181152,1.8141327-8.0168457,4.3360519-11.1050415,7.5832977
		c-3.0794678,3.2475128-5.4509277,7.1055984-7.1055908,11.574234c-1.645813,4.4686432-2.46875,9.3177795-2.46875,14.5295715
		c0,5.3268433,0.822937,10.1937866,2.46875,14.6092377c1.6546631,4.415451,4.026123,8.2559662,7.1055908,11.4945831
		c3.0881958,3.2472382,6.7869263,5.7780609,11.1050415,7.5832977c4.3093262,1.813858,9.1230469,2.7166138,14.4500122,2.7166138
		c5.4241943,0,10.1052246-0.6105652,14.0428467-1.8406067c3.9377441-1.2211304,7.0789795-2.4687195,9.4238892-3.7519531V155.859726
		h-20.2723999v-22.989151h44.2171021V191.9445343z M1016.3167114,165.9171448v5.1145782
		c0,2.4511719-0.5044556,4.5747681-1.5131836,6.3886414c-1.0176392,1.8052216-2.371521,3.2918091-4.0792236,4.4686432
		c-1.6989746,1.167923-3.6456909,2.0706787-5.8225098,2.7077026c-2.1856079,0.6459351-4.4509888,0.9645844-6.7869263,0.9645844
		c-2.6546631,0-5.2119751-0.6902161-7.6629639-2.0795898c-2.4511719-1.3801727-3.6723022-3.5129547-3.6723022-6.3886261
		c0-2.6547852,0.8759766-4.7341003,2.6369629-6.2206726c1.7520142-1.4954987,3.8845215-2.6104889,6.3887329-3.353653
		c2.4953613-0.7434235,5.1057129-1.1946564,7.8134155-1.3539734c2.7166138-0.1590576,4.9818115-0.2476349,6.7958374-0.2476349
		H1016.3167114z M1016.3167114,199.9226379h22.0331421v-39.4298096c0-6.4950409-0.5397949-12.2112732-1.6015625-17.1576233
		c-1.0617676-4.955246-2.9465332-9.1319733-5.6719971-12.5385437c-2.7076416-3.4068451-6.3269043-5.9816895-10.8485718-7.74263
		c-4.5216064-1.7520294-10.2998047-2.6280441-17.3257446-2.6280441c-6.3799438,0-12.5563354,1.0350723-18.5114136,3.105751
		c-5.9641724,2.0795822-11.1759644,5.1942444-15.6445923,9.3442383l12.7686157,13.0872803
		c2.557312-2.875946,5.4509277-5.1321411,8.6983032-6.7869568c3.2474976-1.6458893,6.8401489-2.4687042,10.777771-2.4687042
		c4.1500854,0,7.7426147,1.2475891,10.77771,3.7516785c3.0351562,2.4954529,4.5483398,5.8844604,4.5483398,10.1319427
		c-3.3005981,0-6.8931885,0.0529327-10.777771,0.1593323c-3.8846436,0.115036-7.7692261,0.4244995-11.6537476,0.9643097
		c-3.8847046,0.530899-7.6364746,1.3539886-11.2556152,2.4689941c-3.6190796,1.123642-6.8399658,2.6898804-9.6627197,4.7162628
		c-2.8139648,2.0263977-5.0526123,4.5747681-6.6985474,7.6629639c-1.6546631,3.0881958-2.4776001,6.8576965-2.4776001,11.3352509
		c0,3.9377441,0.7432861,7.397522,2.2386475,10.3706665c1.4865723,2.9820709,3.5129395,5.4861603,6.0614624,7.5036469
		c2.5571899,2.0263824,5.5127563,3.5394287,8.8574829,4.5572052c3.3536377,1.008606,6.848938,1.5130463,10.4680176,1.5130463
		c4.8934326,0,9.5478516-0.9024811,13.9633179-2.7166138c4.4154053-1.8049622,7.9550171-4.7870178,10.6184082-8.9372864h0.3186646
		V199.9226379z M1104.6011963,122.33815h-21.0776367v-22.988884h-23.9447021v22.988884h-15.3259277v19.1572723h15.3259277
		v36.8816986c0,4.2561188,0.7167969,7.8752136,2.1502686,10.8572845c1.4422607,2.9731445,3.4333496,5.397583,5.9904785,7.2559967
		c2.557251,1.8670654,5.5303955,3.2207947,8.9372559,4.0792542c3.4067383,0.8492737,7.1320801,1.2740479,11.1759033,1.2740479
		c2.7697754,0,5.5925293-0.159317,8.4682617-0.4777069c2.8669434-0.3186493,5.6365967-0.9556732,8.3001709-1.9202576v-19.9538879
		c-1.0708008,0.9556732-2.6369629,1.5751495-4.7076416,1.8406067c-2.0794678,0.2565308-3.7606201,0.3983002-5.0349121,0.3983002
		c-2.557373,0-4.6102295-0.345108-6.1497803-1.0442505c-1.5396729-0.6902161-2.6812744-1.6723633-3.4245605-2.9555969
		c-0.7520752-1.2740479-1.2298584-2.7870941-1.4422607-4.5480347c-0.2124023-1.7520294-0.3184814-3.698761-0.3184814-5.8226318
		v-25.8648224h21.0776367V122.33815z M1136.6838379,152.3527069c0.1062012-1.9199982,0.5664062-3.7516937,1.362793-5.5126343
		c0.7962646-1.7520294,1.9200439-3.2917938,3.3536377-4.6279602c1.4334717-1.3272552,3.1589355-2.4157867,5.1853027-3.2739868
		c2.0174561-0.8495483,4.3624268-1.2743225,7.0258789-1.2743225c4.3624268,0,7.9284668,1.4336548,10.6981201,4.3093262
		c2.7696533,2.8759308,4.0969238,6.3357086,3.9908447,10.3795776H1136.6838379z M1171.8132324,174.2179413
		c-2.0262451,2.7695465-4.3890381,5.0349274-7.1054688,6.7869568c-2.7166748,1.7609253-6.0437012,2.6369476-9.9814453,2.6369476
		c-4.6809082,0-8.6186523-1.3539886-11.8128662-4.0703278c-3.194458-2.7166138-5.2650146-6.362442-6.2296143-10.9372253h55.5611572
		v-7.5036316c0-6.1674652-0.8583984-11.760025-2.5484619-16.7593079c-1.7078857-5.0084534-4.1324463-9.2823944-7.2736816-12.857193
		c-3.1412354-3.5661697-6.9639893-6.3003387-11.4855957-8.2206039c-4.5305176-1.9113464-9.5566406-2.8670273-15.0871582-2.8670273
		c-5.9639893,0-11.5740967,0.9556808-16.8477783,2.8670273c-5.2650146,1.9202652-9.8487549,4.6544342-13.7243652,8.2206039
		c-3.8934326,3.5747986-6.9462891,7.8487396-9.1850586,12.857193c-2.2298584,4.9992828-3.3536377,10.5918427-3.3536377,16.7593079
		c0,6.1763916,1.1237793,11.760025,3.3536377,16.768219c2.2387695,4.9995422,5.291626,9.2823944,9.1850586,12.8485565
		c3.8756104,3.5659027,8.4593506,6.3089752,13.7243652,8.2203369c5.2736816,1.9202576,10.8837891,2.8759308,16.8477783,2.8759308
		c6.2738037,0,12.3439941-1.3361664,18.1929932-3.9909363c5.8579102-2.6634216,10.6981201-6.4418335,14.5296631-11.3352509
		L1171.8132324,174.2179413z M1224.3356934,199.9226379h24.1125488l14.3704834-51.5614166h0.3094482l16.1314697,51.5614166
		h23.6259766l27.6168213-77.5855637h-24.2631836l-14.529541,48.6946487h-0.3187256l-14.3613281-48.6946487h-26.1921387
		l-13.2554932,48.6946487h-0.3183594l-15.8039551-48.6946487h-25.5372314L1224.3356934,199.9226379z M1385.2628174,165.9171448
		v5.1145782c0,2.4511719-0.5045166,4.5747681-1.5133057,6.3886414c-1.0175781,1.8052216-2.371582,3.2918091-4.0793457,4.4686432
		c-1.6987305,1.167923-3.6455078,2.0706787-5.8222656,2.7077026c-2.185791,0.6459351-4.4422607,0.9645844-6.7869873,0.9645844
		c-2.6547852,0-5.2120361-0.6902161-7.6629639-2.0795898c-2.4511719-1.3801727-3.6722412-3.5129547-3.6722412-6.3886261
		c0-2.6547852,0.8759766-4.7341003,2.6368408-6.2206726c1.7520752-1.4954987,3.8846436-2.6104889,6.3886719-3.353653
		c2.4954834-0.7434235,5.1057129-1.1946564,7.8133545-1.3539734c2.7166748-0.1590576,4.9820557-0.2476349,6.7958984-0.2476349
		H1385.2628174z M1385.2628174,199.9226379h22.0332031v-39.4298096c0-6.4950409-0.539917-12.2112732-1.6016846-17.1576233
		c-1.0617676-4.955246-2.9466553-9.1319733-5.6633301-12.5385437c-2.7163086-3.4068451-6.3356934-5.9816895-10.8571777-7.74263
		c-4.5216064-1.7520294-10.2999268-2.6280441-17.3259277-2.6280441c-6.3800049,0-12.5563965,1.0350723-18.5113525,3.105751
		c-5.9641113,2.0795822-11.1759033,5.1942444-15.6445312,9.3442383l12.7686768,13.0872803
		c2.557251-2.875946,5.4508057-5.1321411,8.6982422-6.7869568c3.2475586-1.6458893,6.84021-2.4687042,10.7775879-2.4687042
		c4.1502686,0,7.7426758,1.2475891,10.7779541,3.7516785c3.0350342,2.4954529,4.5483398,5.8844604,4.5483398,10.1319427
		c-3.3007812,0-6.8934326,0.0529327-10.7779541,0.1593323c-3.8845215,0.115036-7.769043,0.4244995-11.6535645,0.9643097
		c-3.8848877,0.530899-7.6365967,1.3539886-11.2556152,2.4689941c-3.6191406,1.123642-6.84021,2.6898804-9.6629639,4.7162628
		c-2.8137207,2.0263977-5.0523682,4.5747681-6.6983643,7.6629639c-1.6547852,3.0881958-2.4775391,6.8576965-2.4775391,11.3352509
		c0,3.9377441,0.7431641,7.397522,2.2386475,10.3706665c1.4865723,2.9820709,3.5129395,5.4861603,6.0612793,7.5036469
		c2.557251,2.0263824,5.5129395,3.5394287,8.8665771,4.5572052c3.3536377,1.008606,6.8398438,1.5130463,10.4589844,1.5130463
		c4.8934326,0,9.5478516-0.9024811,13.9632568-2.7166138c4.4154053-1.8049622,7.9552002-4.7870178,10.6185303-8.9372864h0.3187256
		V199.9226379z M1500.5269775,122.3370743h-24.5819092l-17.0869141,51.2430344h-0.3183594l-19.9538574-51.2430344h-25.8648682
		l34.0054932,78.2314987l-1.7519531,4.4686432c-0.8582764,2.1238708-1.654541,3.9909363-2.3980713,5.5836487
		c-0.7519531,1.6016083-1.6723633,2.9553223-2.7873535,4.0703278c-1.1235352,1.1239166-2.5307617,1.9731903-4.2385254,2.5572968
		c-1.6988525,0.5840912-3.8845215,0.8760071-6.5479736,0.8760071c-3.8226318,0-7.5567627-0.7963562-11.1669922-2.3890533
		l-3.1945801,19.6352386c5.7429199,1.9113464,11.6981201,2.875946,17.8745117,2.875946
		c5.751709,0,10.3796387-0.5665588,13.8925781-1.6812897c3.5129395-1.1149902,6.4064941-2.7698059,8.6983643-4.9466095
		c2.2915039-2.1854401,4.1853027-4.866684,5.671875-8.0610046c1.4865723-3.1945801,3.026123-6.8666077,4.6279297-11.0168762
		L1500.5269775,122.3370743z M912.2716675,245.4059601c-3.6633301-4.2299347-7.6275635-7.2206421-11.8925781-8.9904938
		c-4.2562866-1.769577-8.8842163-2.6455841-13.8659668-2.6455841c-5.6809692,0-10.8927612,0.9200287-15.6358032,2.751709
		c-4.7428589,1.8316956-8.8220825,4.4510956-12.2554321,7.8401184c-3.4243774,3.397934-6.1143799,7.5036316-8.0523071,12.3173981
		c-1.9378662,4.8137512-2.9111938,10.1584167-2.9111938,16.0426025c0,5.7518921,0.9733276,10.9812317,2.9111938,15.6888733
		c1.9379272,4.7076111,4.6279297,8.7425842,8.0523071,12.1051331c3.4333496,3.3536377,7.5125732,5.9552002,12.2554321,7.7866211
		c4.743042,1.8406067,9.954834,2.7520142,15.6358032,2.7520142c5.3977051,0,10.4945068-1.0353394,15.2728882-3.1146545
		c4.7781982-2.0706787,8.8309937-5.397583,12.149292-9.9726257l-10.8043823-7.6894226
		c-2.4245605,3.1146545-5.0349121,5.388916-7.8399658,6.8047485c-2.7961426,1.424469-5.6985474,2.1325378-8.6716919,2.1325378
		c-3.8137817,0-7.2558594-0.6902466-10.3353271-2.0795898c-3.0794067-1.3804626-5.7338867-3.2915344-7.9549561-5.7073364
		c-2.2122192-2.4246826-3.928833-5.300354-5.1323242-8.627533c-1.2211304-3.327179-1.8227539-6.9638367-1.8227539-10.9104919
		c0-3.6633911,0.6016235-7.0966797,1.8227539-10.2821045c1.2034912-3.1856689,2.920105-5.9730225,5.1323242-8.3620911
		c2.2210693-2.3890533,4.8755493-4.2561188,7.9549561-5.6101074c3.0794678-1.3450623,6.5215454-2.0263824,10.3353271-2.0263824
		c2.557251,0,5.1056519,0.486618,7.6364746,1.4601135c2.5217896,0.9645844,5.1410522,2.9024048,7.8399658,5.813446
		L912.2716675,245.4059601z M921.7336426,309.1899719h13.0871582v-32.4127808h34.3861084v32.4127808h13.0872803v-73.5505981
		h-13.0872803V264.9375h-34.3861084v-29.2981262h-13.0871582V309.1899719z M1056.565918,235.6415405h-13.0872803v46.1192627
		c0,1.8052368-0.274292,3.6901245-0.8317871,5.6632996c-0.557373,1.9732056-1.4688721,3.787323-2.7519531,5.4508057
		c-1.2830811,1.6634521-2.9731445,3.0349731-5.0880127,4.1056824s-4.7340088,1.6105347-7.8487549,1.6105347
		c-3.1148071,0-5.7339478-0.5398254-7.8400269-1.6105347c-2.1148071-1.0707092-3.8048706-2.4422302-5.0879517-4.1056824
		c-1.2831421-1.6634827-2.2034302-3.4776001-2.7520142-5.4508057c-0.5574951-1.973175-0.8317261-3.8580627-0.8317261-5.6632996
		v-46.1192627h-13.0960693v46.5351257c0,4.4332581,0.7432861,8.4328613,2.2386475,11.9990234
		c1.4865723,3.5658875,3.56604,6.5922546,6.2383423,9.087677c2.6546631,2.4952087,5.7958984,4.4154663,9.3885498,5.769165
		c3.6101685,1.3450928,7.5213013,2.0263977,11.7422485,2.0263977c4.2296143,0,8.1407471-0.6813049,11.7421875-2.0263977
		c3.6014404-1.3536987,6.7161865-3.2739563,9.3442383-5.769165c2.6369629-2.4954224,4.7164307-5.5217896,6.2382812-9.087677
		c1.5219727-3.5661621,2.2830811-7.5657654,2.2830811-11.9990234V235.6415405z M1084.717041,266.8045654v-19.9449768h11.326416
		c1.6547852,0,3.37146,0.1063995,5.1411133,0.3097382c1.7697754,0.2125244,3.3713379,0.6459351,4.8312988,1.3007812
		c1.4602051,0.6548615,2.6281738,1.6459045,3.5306396,2.9556122c0.8937988,1.3183441,1.3450928,3.0528107,1.3450928,5.1939697
		c0,2.4247131-0.4777832,4.3182373-1.4511719,5.6632996c-0.9733887,1.3537292-2.2298584,2.3536987-3.7873535,3.0174561
		c-1.56604,0.6548462-3.2739258,1.0707092-5.1409912,1.238678c-1.8759766,0.1771545-3.743042,0.2654419-5.6101074,0.2654419
		H1084.717041z M1071.6298828,309.1899719h13.0871582v-31.1651917h9.5566406l17.0338135,31.1651917h15.7950439
		l-19.5291748-32.5189209c5.4685059-0.7609558,9.6804199-2.9377747,12.6182861-6.5393066
		c2.9466553-3.6012573,4.4155273-8.0699158,4.4155273-13.4056702c0-4.1588898-0.7611084-7.5835571-2.2830811-10.2823486
		s-3.56604-4.8491364-6.123291-6.4418335c-2.56604-1.5927124-5.4951172-2.7166138-8.7867432-3.3801117
		c-3.282959-0.6548462-6.6984863-0.9824066-10.229126-0.9824066h-25.5550537V309.1899719z M1196.7011719,245.4059601
		c-3.6633301-4.2299347-7.6275635-7.2206421-11.8925781-8.9904938c-4.2563477-1.769577-8.8842773-2.6455841-13.8659668-2.6455841
		c-5.6810303,0-10.8928223,0.9200287-15.6358643,2.751709c-4.7427979,1.8316956-8.8308105,4.4510956-12.2553711,7.8401184
		c-3.4333496,3.397934-6.1143799,7.5036316-8.0523682,12.3173981c-1.9377441,4.8137512-2.9111328,10.1584167-2.9111328,16.0426025
		c0,5.7518921,0.9733887,10.9812317,2.9111328,15.6888733c1.9379883,4.7076111,4.6190186,8.7425842,8.0523682,12.1051331
		c3.4245605,3.3536377,7.5125732,5.9552002,12.2553711,7.7866211c4.743042,1.8406067,9.954834,2.7520142,15.6358643,2.7520142
		c5.3977051,0,10.4945068-1.0353394,15.2728271-3.1146545c4.7783203-2.0706787,8.8310547-5.397583,12.149292-9.9726257
		l-10.8043213-7.6894226c-2.4245605,3.1146545-5.0349121,5.388916-7.8399658,6.8047485
		c-2.8050537,1.424469-5.6986084,2.1325378-8.6717529,2.1325378c-3.8137207,0-7.2558594-0.6902466-10.3352051-2.0795898
		c-3.0882568-1.3804626-5.7340088-3.2915344-7.946167-5.7073364c-2.2210693-2.4246826-3.9377441-5.300354-5.1411133-8.627533
		c-1.2211914-3.327179-1.822876-6.9638367-1.822876-10.9104919c0-3.6633911,0.6016846-7.0966797,1.822876-10.2821045
		c1.2033691-3.1856689,2.9200439-5.9730225,5.1411133-8.3620911c2.2121582-2.3890533,4.8579102-4.2561188,7.946167-5.6101074
		c3.0793457-1.3450623,6.5214844-2.0263824,10.3352051-2.0263824c2.557373,0,5.1057129,0.486618,7.6364746,1.4601135
		c2.5218506,0.9645844,5.1411133,2.9024048,7.8400879,5.813446L1196.7011719,245.4059601z M1206.1577148,309.1899719h13.0871582
		v-32.4127808h34.3859863v32.4127808h13.0872803v-73.5505981h-13.0872803V264.9375h-34.3859863v-29.2981262h-13.0871582V309.1899719
		z"/>
	<path class="st1" d="M499.4730835,399.8558044h235.2075806V139.9248657
		c-4.114624,10.9369354-9.3708496,23.7409515-15.1931763,38.1290131
		c-14.3084106,35.3773041-26.9886475,63.3214417-50.7473755,105.3792877
		c-38.0848999,67.4360657-72.4887085,93.3186951-98.7693481,93.3186951c-16.8568115,0-37.8991089,0.2033691-58.100769-22.1927795
		c-4.9021912-5.4329834-9.0698547-12.2995911-12.3969116-20.8210144V399.8558044z M661.7584229,124.2095413
		c38.4299927-19.9274292,63.2948608-24.4400864,72.9222412-25.4578781V0h-67.3563843
		c-75.3734131,62.3128357-135.4030151,198.6890869-135.4030151,287.7071228
		c0,46.2345581,10.3795776,76.1254272,32.8287354,76.1254272c18.5911255,0,36.0849609-19.8563843,67.8076782-72.8071594
		c40.1376953-67.0202026,52.8621826-108.0959167,57.1804199-130.8193512
		c0.1326904-0.6902161,0.3892822-1.8670654,0.6813354-3.327179c0.0264282-0.6281128,0.0796509-1.4865723,0.177002-2.6280365
		c0.0618286-0.7342377-0.3451538-1.9731903-0.7168579-2.3625946c-0.8140259-0.8670959-1.9555054-0.6724091-3.017395-0.0972137
		c-12.7243652,6.9992065-26.3425293,15.9364929-38.2617798,24.3161316
		c-23.0067139,16.1311951-38.465332,32.2801971-46.1992188,41.4475555
		c-2.5306396,3.0260925-6.4329224,4.0260468-7.7514038-4.6104126c-0.9291992-6.1320953-3.2474976-22.165802-4.5128784-30.9969482
		c-0.5309448-3.6101837-1.1414795-10.2378082,4.6544189-14.998642
		C602.9321289,160.2946167,622.487793,144.5792999,661.7584229,124.2095413 M601.9765625,0h-102.503479v194.654129
		C517.6571045,115.9535675,560.2990723,45.5532646,601.9765625,0"/>
</g>
</svg>
